<svg width="30" height="34" viewBox="0 0 30 34" fill="none" xmlns="http://www.w3.org/2000/svg">
<path d="M26.1042 31.944H3.65654C2.27305 31.944 1.28652 30.6021 1.69918 29.2816L2.78604 25.8036C3.67783 22.9499 6.32075 21.0068 9.31058 21.0068H20.4502C23.44 21.0068 26.0829 22.9499 26.9747 25.8036L28.0616 29.2816C28.4742 30.6021 27.4877 31.944 26.1042 31.944Z" stroke="#332422" stroke-width="2.73428"/>
<path d="M9.92439 5.45539C12.6614 2.71834 17.0991 2.71834 19.8361 5.45539C22.5732 8.19245 22.5732 12.6301 19.8361 15.3672C17.0991 18.1042 12.6614 18.1042 9.92439 15.3672C7.18733 12.6301 7.18733 8.19245 9.92439 5.45539Z" stroke="#332422" stroke-width="2.73428"/>
</svg>
