<svg width="43" height="43" viewBox="0 0 43 43" fill="none" xmlns="http://www.w3.org/2000/svg">
<path fill-rule="evenodd" clip-rule="evenodd" d="M27.0503 2.97622C30.5249 -0.499885 36.1608 -0.499885 39.6354 2.97622C43.1115 6.45083 43.1115 12.0853 39.6354 15.5614L16.0132 39.1837H40.8215C41.6472 39.1837 42.3173 39.8523 42.3173 40.6794C42.3173 41.5051 41.6472 42.1752 40.8215 42.1752H1.93226C1.10662 42.1752 0.436523 41.5051 0.436523 40.6794V30.2092C0.436523 29.8129 0.593621 29.4314 0.87482 29.1517L27.0503 2.97622ZM11.7832 39.1837L31.9757 18.9912L23.6205 10.636L3.42801 30.8285V39.1837H11.7832ZM25.7355 8.52098L34.0907 16.8762L37.5205 13.4464C39.8269 11.1385 39.8269 7.39763 37.5205 5.0912C35.2126 2.78327 31.4731 2.78327 29.1652 5.0912L25.7355 8.52098Z" fill="#DEB6AE"/>
</svg>
