<svg width="47" height="47" viewBox="0 0 47 47" fill="none" xmlns="http://www.w3.org/2000/svg">
<path d="M44.4152 11.7892C44.3678 11.7892 44.2968 11.7892 44.2257 11.7892C31.6971 10.649 19.1922 10.2188 6.80566 11.3589L1.97421 11.7892C0.9795 11.8752 0.103208 11.2298 0.00847323 10.3263C-0.0862611 9.42282 0.624246 8.64838 1.59527 8.56234L6.42672 8.13209C19.0264 6.97044 31.7918 7.42219 44.581 8.56234C45.552 8.64838 46.2625 9.44433 46.1678 10.3263C46.0967 11.1653 45.3152 11.7892 44.4152 11.7892Z" fill="#DEB6AE"/>
<path d="M14.8159 9.61593C14.7211 9.61593 14.6264 9.61593 14.508 9.59442C13.5606 9.44384 12.8975 8.60486 13.0633 7.74438L13.5843 4.92628C13.9633 2.86112 14.4843 0 20.0026 0H26.2077C31.7496 0 32.2707 2.96868 32.6259 4.9478L33.1469 7.74438C33.3127 8.62638 32.6496 9.46535 31.7023 9.59442C30.7312 9.74501 29.8076 9.14267 29.6655 8.28218L29.1444 5.4856C28.8129 3.61404 28.7418 3.24834 26.2313 3.24834H20.0263C17.5158 3.24834 17.4684 3.54951 17.1132 5.46409L16.5685 8.26067C16.4263 9.05662 15.6685 9.61593 14.8159 9.61593Z" fill="#DEB6AE"/>
<path d="M30.7064 46.2516H15.5016C7.23599 46.2516 6.90442 42.0997 6.6439 38.7438L5.10447 17.0811C5.03342 16.1991 5.79129 15.4247 6.76232 15.3601C7.75703 15.3171 8.58596 15.984 8.65701 16.866L10.1964 38.5287C10.457 41.7986 10.5517 43.0248 15.5016 43.0248H30.7064C35.68 43.0248 35.7747 41.7986 36.0115 38.5287L37.551 16.866C37.622 15.984 38.4746 15.3171 39.4456 15.3601C40.4167 15.4247 41.1745 16.1776 41.1035 17.0811L39.5641 38.7438C39.3035 42.0997 38.972 46.2516 30.7064 46.2516Z" fill="#DEB6AE"/>
<path d="M27.0276 34.4199H19.141C18.17 34.4199 17.3647 33.6885 17.3647 32.8065C17.3647 31.9245 18.17 31.1931 19.141 31.1931H27.0276C27.9987 31.1931 28.8039 31.9245 28.8039 32.8065C28.8039 33.6885 27.9987 34.4199 27.0276 34.4199Z" fill="#DEB6AE"/>
<path d="M29.0121 25.8152H17.1703C16.1993 25.8152 15.394 25.0838 15.394 24.2018C15.394 23.3198 16.1993 22.5884 17.1703 22.5884H29.0121C29.9831 22.5884 30.7884 23.3198 30.7884 24.2018C30.7884 25.0838 29.9831 25.8152 29.0121 25.8152Z" fill="#DEB6AE"/>
</svg>
