<svg width="39" height="39" viewBox="0 0 39 39" fill="none" xmlns="http://www.w3.org/2000/svg">
<path d="M19.5 39C8.74326 39 0 30.2567 0 19.5C0 8.74326 8.74326 0 19.5 0C30.2567 0 39 8.74326 39 19.5C39 30.2567 30.2567 39 19.5 39ZM19.5 2.72093C10.2488 2.72093 2.72093 10.2488 2.72093 19.5C2.72093 28.7512 10.2488 36.2791 19.5 36.2791C28.7512 36.2791 36.2791 28.7512 36.2791 19.5C36.2791 10.2488 28.7512 2.72093 19.5 2.72093Z" fill="#DEB6AE"/>
<path d="M14.3662 25.9939C14.0215 25.9939 13.6769 25.8669 13.4048 25.5948C12.8787 25.0688 12.8787 24.1981 13.4048 23.672L23.6718 13.405C24.1978 12.879 25.0685 12.879 25.5946 13.405C26.1206 13.9311 26.1206 14.8018 25.5946 15.3278L15.3276 25.5948C15.0736 25.8669 14.7108 25.9939 14.3662 25.9939Z" fill="#DEB6AE"/>
<path d="M24.6332 25.9939C24.2885 25.9939 23.9439 25.8669 23.6718 25.5948L13.4048 15.3278C12.8787 14.8018 12.8787 13.9311 13.4048 13.405C13.9308 12.879 14.8015 12.879 15.3276 13.405L25.5946 23.672C26.1206 24.1981 26.1206 25.0688 25.5946 25.5948C25.3225 25.8669 24.9778 25.9939 24.6332 25.9939Z" fill="#DEB6AE"/>
</svg>
